<?xml version="1.0" encoding="UTF-8"?>
<svg id="Layer_2" data-name="Layer 2" xmlns="http://www.w3.org/2000/svg" viewBox="0 0 3339.53 1170.77">
  <defs>
    <style>
      .cls-1 {
        fill: #5c5467;
      }
    </style>
  </defs>
  <g id="Mid_Mountains" data-name="Mid Mountains">
    <path class="cls-1" d="M3339.53,373.92v763.56c0,18.39-14.9,33.29-33.29,33.29H33.29c-18.39,0-33.29-14.9-33.29-33.29V387.15c0-18.39,14.9-33.29,33.29-33.29h719.88c9.4,0,18.37-3.98,24.68-10.95L1078.01,11.3c13.18-14.56,35.86-15.13,49.75-1.24l102.68,102.68c26.41,26.41,69.24,26.41,95.65,0l33.77-33.77c13.41-13.42,35.16-13.42,48.57,0l241.52,241.52c12.69,12.69,29.89,19.81,47.83,19.81h990.16l618.32.33c18.38,0,33.27,14.91,33.27,33.29Z"/>
  </g>
</svg>