<?xml version="1.0" encoding="UTF-8"?>
<svg id="Layer_2" data-name="Layer 2" xmlns="http://www.w3.org/2000/svg" viewBox="0 0 1093.67 100.99">
  <defs>
    <style>
      .cls-1 {
        fill: #fff;
      }
    </style>
  </defs>
  <g id="Text">
    <g>
      <path class="cls-1" d="M10.34,2.66h27.49c3.92,20.67,7.01,38.45,9.26,53.33l2.37-14.86c.96-5.79,1.98-11.44,3.09-16.94l4.23-21.53h28.06l10.91,95.82h-21.53l-5.81-65.89-13.42,65.89h-14.71l-14.07-66.04-5.6,66.04H0L10.34,2.66Z"/>
      <path class="cls-1" d="M105.73,2.66h51.9v21.89h-15v73.93h-22.04V24.55h-14.86V2.66Z"/>
      <path class="cls-1" d="M158.63,88.79c0-3.25,1.16-6.05,3.48-8.4,2.32-2.34,5.13-3.52,8.43-3.52s6.14,1.16,8.51,3.48c2.37,2.32,3.55,5.08,3.55,8.29s-1.21,6.02-3.62,8.43c-2.42,2.42-5.23,3.62-8.43,3.62s-6.11-1.16-8.43-3.48c-2.32-2.32-3.48-5.13-3.48-8.43Z"/>
      <path class="cls-1" d="M286.54,75.87v22.75c-4.59,1.48-8.71,2.23-12.35,2.23-12.59,0-22.79-4.73-30.61-14.18-7.82-9.45-11.74-21.88-11.74-37.29,0-14.31,3.95-26.11,11.84-35.42,7.9-9.31,17.87-13.96,29.93-13.96,4.69,0,9,.62,12.92,1.87v22.83c-4.16-1.39-8.09-2.08-11.77-2.08-5.65,0-10.34,2.58-14.07,7.75s-5.6,11.75-5.6,19.74c0,8.61,1.88,15.42,5.63,20.42,3.76,5,8.77,7.5,15.04,7.5,3.06,0,6.65-.72,10.77-2.15Z"/>
      <path class="cls-1" d="M367.64,98.48h-22.61l-3.66-16.01h-22.97l-3.8,16.01h-22.18L317.83,2.66h24.4l25.41,95.82ZM337.21,65.25c-3.25-14.26-5.7-27.83-7.32-40.7h-.29c-1.72,13.25-4.14,26.82-7.25,40.7h14.86Z"/>
      <path class="cls-1" d="M378.63,2.66h25.34c10.24,0,18.33,2.63,24.26,7.89,5.93,5.26,8.9,12.42,8.9,21.46,0,4.64-1.12,9.13-3.37,13.46-2.25,4.33-5.53,7.6-9.83,9.8l17.37,43.21h-22.97l-17.59-43.64h-.36v43.64h-21.75V2.66ZM400.37,21.17v22.75c9.62-.19,14.43-3.56,14.43-10.12,0-4.45-1.11-7.63-3.34-9.55-2.23-1.91-5.92-2.94-11.09-3.09Z"/>
      <path class="cls-1" d="M460.52,2.66h27.49c3.92,20.67,7.01,38.45,9.26,53.33l2.37-14.86c.96-5.79,1.98-11.44,3.09-16.94l4.23-21.53h28.06l10.91,95.82h-21.53l-5.81-65.89-13.42,65.89h-14.71l-14.07-66.04-5.6,66.04h-20.6l10.34-95.82Z"/>
      <path class="cls-1" d="M563.09,2.66h44v20.38h-22.25v17.66h19.31v19.88h-19.31v17.44h22.39v20.46h-44.14V2.66Z"/>
      <path class="cls-1" d="M624.39,2.66h21.75v73.64h17.23v22.18h-38.97V2.66Z"/>
      <path class="cls-1" d="M780,44.79v16.08c0,12.44-3,22.21-9.01,29.32-6.01,7.11-14.22,10.66-24.66,10.66-11.68,0-20.7-4.39-27.06-13.17-6.36-8.78-9.55-21.31-9.55-37.58s3.17-28.87,9.51-37.36c6.34-8.49,15.61-12.74,27.81-12.74,13.68,0,23.59,7.3,29.72,21.89l-20.74,8.54c-1.72-3.06-3.33-5.3-4.81-6.71-1.48-1.41-3.52-2.12-6.1-2.12-4.4,0-7.53,2.31-9.37,6.93-1.84,4.62-2.76,12.09-2.76,22.43,0,9.62,1.04,16.69,3.12,21.21,2.08,4.52,5.39,6.78,9.94,6.78,7.27,0,11.03-5.19,11.27-15.58h-10.12v-18.59h32.8Z"/>
      <path class="cls-1" d="M863.05,98.48h-22.61l-3.66-16.01h-22.97l-3.8,16.01h-22.18l25.41-95.82h24.4l25.41,95.82ZM832.62,65.25c-3.25-14.26-5.7-27.83-7.32-40.7h-.29c-1.72,13.25-4.14,26.82-7.25,40.7h14.86Z"/>
      <path class="cls-1" d="M881,2.66h27.49c3.92,20.67,7.01,38.45,9.26,53.33l2.37-14.86c.96-5.79,1.98-11.44,3.09-16.94l4.23-21.53h28.07l10.91,95.82h-21.53l-5.81-65.89-13.42,65.89h-14.71l-14.07-66.04-5.6,66.04h-20.6l10.34-95.82Z"/>
      <path class="cls-1" d="M983.56,2.66h44v20.38h-22.25v17.66h19.31v19.88h-19.31v17.44h22.39v20.46h-44.14V2.66Z"/>
      <path class="cls-1" d="M1044.86,96.68v-22.32c6.89,4.02,12.68,6.03,17.37,6.03,2.73,0,4.88-.75,6.46-2.26,1.58-1.51,2.37-3.5,2.37-5.99,0-1.91-.63-3.71-1.9-5.38-1.27-1.67-3.46-3.71-6.57-6.1-7.51-5.74-12.96-11.09-16.33-16.04-3.37-4.95-5.06-10.47-5.06-16.54,0-8.28,2.61-15.02,7.82-20.24,5.21-5.22,11.96-7.82,20.24-7.82,6.12,0,12.2,1.32,18.23,3.95v21.46c-6.46-3.54-11.7-5.31-15.72-5.31-2.68,0-4.8.66-6.35,1.97-1.56,1.32-2.33,3.12-2.33,5.42,0,4.02,3.61,8.54,10.84,13.57,4.31,2.97,8.67,7.14,13.1,12.53,4.42,5.38,6.64,11.62,6.64,18.7,0,8.28-2.9,15.13-8.68,20.56-5.79,5.43-13.14,8.15-22.04,8.15-6.08,0-12.11-1.44-18.09-4.31Z"/>
    </g>
  </g>
</svg>